<svg width="64" height="65" viewBox="0 0 64 65" fill="none" xmlns="http://www.w3.org/2000/svg">
<g id="icon-git">
<path id="Vector" d="M56.2668 29.9667L34.5334 8.23332C33.8667 7.56666 32.9334 7.16666 32.0001 7.16666C31.0667 7.16666 30.1334 7.56666 29.4667 8.23332L24.8001 12.9L30.2668 18.3667C30.8001 18.1 31.3334 17.9667 32.0001 17.9667C34.2667 17.9667 36.0001 19.7 36.0001 21.9667C36.0001 22.6333 35.8668 23.1667 35.6001 23.7L40.9334 29.0333C41.4668 28.7667 42.0001 28.6333 42.6667 28.6333C44.9334 28.6333 46.6667 30.3667 46.6667 32.6333C46.6667 34.9 44.9334 36.6333 42.6667 36.6333C40.4001 36.6333 38.6667 34.9 38.6667 32.6333C38.6667 31.9667 38.8001 31.4333 39.0667 30.9L33.7334 25.5667C33.6001 25.5667 33.4667 25.7 33.3334 25.7V39.5667C34.9334 40.1 36.0001 41.5667 36.0001 43.3C36.0001 45.5667 34.2667 47.3 32.0001 47.3C29.7334 47.3 28.0001 45.5667 28.0001 43.3C28.0001 41.5667 29.0667 40.1 30.6667 39.5667V25.5667C29.0667 25.0333 28.0001 23.5667 28.0001 21.8333C28.0001 21.1667 28.1334 20.6333 28.4001 20.1L22.9334 14.6333L7.73342 29.9667C7.06675 30.6333 6.66675 31.5667 6.66675 32.5C6.66675 33.4333 7.06675 34.3667 7.73342 35.0333L29.4667 56.7667C30.1334 57.4333 31.0667 57.8333 32.0001 57.8333C32.9334 57.8333 33.8667 57.4333 34.5334 56.7667L56.2668 35.0333C56.9334 34.3667 57.3334 33.4333 57.3334 32.5C57.3334 31.5667 56.9334 30.6333 56.2668 29.9667Z" fill="#F4511E"/>
</g>
</svg>
