<svg width="65" height="65" viewBox="0 0 65 65" fill="none" xmlns="http://www.w3.org/2000/svg">
<g id="icon-sass">
<path id="Vector" d="M53.8054 35.108C51.7548 35.1187 49.9788 35.6107 48.4908 36.3453C47.9468 35.2587 47.3948 34.3027 47.3028 33.592C47.1948 32.7627 47.0694 32.2667 47.2001 31.2787C47.3308 30.2907 47.9028 28.8907 47.8948 28.7853C47.8868 28.68 47.7668 28.1773 46.5841 28.168C45.4014 28.16 44.3894 28.396 44.2708 28.708C44.1521 29.02 43.9241 29.7227 43.7828 30.456C43.5761 31.528 41.4214 35.3533 40.1988 37.3533C39.7988 36.572 39.4588 35.884 39.3881 35.34C39.2801 34.5107 39.1548 34.0147 39.2854 33.0267C39.4161 32.0387 39.9881 30.6387 39.9801 30.5333C39.9721 30.428 39.8521 29.9253 38.6694 29.916C37.4868 29.908 36.4748 30.144 36.3561 30.456C36.2374 30.768 36.1094 31.4973 35.8681 32.204C35.6254 32.9093 32.7628 39.2893 32.0121 40.944C31.6294 41.7867 31.2974 42.464 31.0628 42.9253L31.0614 42.9227C31.0614 42.9227 31.0468 42.9533 31.0228 43.0053C30.8214 43.3987 30.7028 43.616 30.7028 43.616C30.7028 43.616 30.7041 43.6187 30.7068 43.624C30.5468 43.9133 30.3761 44.1813 30.2921 44.1813C30.2334 44.1813 30.1148 43.412 30.3174 42.356C30.7441 40.1427 31.7668 36.692 31.7574 36.572C31.7521 36.5107 31.9481 35.9093 31.0894 35.5947C30.2548 35.2893 29.9574 35.7987 29.8814 35.8C29.8081 35.8013 29.7534 35.98 29.7534 35.98C29.7534 35.98 30.6828 32.0987 27.9801 32.0987C26.2894 32.0987 23.9481 33.948 22.7948 35.624C22.0668 36.0213 20.5081 36.872 18.8561 37.78C18.2214 38.1293 17.5734 38.4853 16.9588 38.824C16.9174 38.7773 16.8748 38.732 16.8321 38.6853C13.5534 35.188 7.49476 32.7147 7.75076 28.012C7.84409 26.3027 8.43876 21.8013 19.3948 16.3427C28.3694 11.8707 35.5548 13.1013 36.7961 15.828C38.5694 19.7253 32.9561 26.9667 23.6361 28.012C20.0854 28.4107 18.2148 27.0333 17.7494 26.5213C17.2601 25.9813 17.1868 25.9573 17.0041 26.0587C16.7068 26.224 16.8948 26.7 17.0041 26.984C17.2828 27.708 18.4241 28.992 20.3708 29.632C22.0841 30.1947 26.2534 30.5027 31.2948 28.552C36.9428 26.368 41.3521 20.2907 40.0561 15.212C38.7388 10.0467 30.1734 8.348 22.0668 11.228C17.2361 12.9427 12.0134 15.6333 8.25743 19.1453C3.79209 23.3213 3.08009 26.9573 3.37343 28.476C4.41609 33.8733 11.8548 37.388 14.8334 39.992C14.6868 40.0733 14.5481 40.1493 14.4228 40.2187C12.9294 40.9573 7.25876 43.9253 5.84009 47.06C4.23076 50.616 6.09609 53.168 7.33076 53.512C11.1561 54.576 15.0814 52.6613 17.1921 49.5147C19.3014 46.3693 19.0441 42.272 18.0761 40.4027C18.0641 40.38 18.0508 40.3573 18.0388 40.3333C18.4241 40.1053 18.8174 39.8733 19.2068 39.644C19.9668 39.1973 20.7134 38.7813 21.3601 38.4293C20.9974 39.4213 20.7321 40.612 20.5948 42.3307C20.4321 44.3493 21.2601 46.9587 22.3428 47.9853C22.8201 48.4373 23.3934 48.448 23.7561 48.448C25.0161 48.448 25.5908 47.4 26.2241 46.16C27.0001 44.64 27.6894 42.8693 27.6894 42.8693C27.6894 42.8693 26.8254 47.6507 29.1801 47.6507C30.0388 47.6507 30.9014 46.5373 31.2868 45.9707C31.2881 45.9773 31.2881 45.98 31.2881 45.98C31.2881 45.98 31.3108 45.9427 31.3548 45.8693C31.4441 45.7333 31.4948 45.6467 31.4948 45.6467C31.4948 45.6467 31.4961 45.6373 31.4988 45.6213C31.8441 45.0227 32.6094 43.6573 33.7561 41.4053C35.2388 38.496 36.6601 34.8507 36.6601 34.8507C36.6601 34.8507 36.7921 35.7413 37.2254 37.216C37.4801 38.0827 38.0214 39.0413 38.4494 39.9613C38.1054 40.4387 37.8948 40.712 37.8948 40.712C37.8948 40.712 37.8961 40.7173 37.9001 40.7267C37.6254 41.092 37.3174 41.4853 36.9948 41.8693C35.8241 43.2627 34.4308 44.8547 34.2441 45.3133C34.0241 45.8547 34.0761 46.252 34.5014 46.5733C34.8121 46.8067 35.3641 46.844 35.9414 46.8053C36.9934 46.7347 37.7321 46.4733 38.0974 46.3147C38.6668 46.1133 39.3294 45.7973 39.9508 45.34C41.0988 44.496 41.7908 43.2893 41.7241 41.6893C41.6868 40.808 41.4068 39.9347 41.0508 39.1107C41.1548 38.9613 41.2588 38.8093 41.3641 38.6573C43.1734 36.012 44.5774 33.1053 44.5774 33.1053C44.5774 33.1053 44.7094 33.996 45.1428 35.4707C45.3614 36.216 45.7948 37.0307 46.1841 37.828C44.4828 39.2107 43.4281 40.8173 43.0614 41.8707C42.3841 43.82 42.9148 44.7027 43.9094 44.904C44.3601 44.9947 44.9974 44.788 45.4761 44.5853C46.0721 44.388 46.7881 44.0587 47.4574 43.5667C48.6054 42.7227 49.7094 41.5413 49.6428 39.9427C49.6121 39.2147 49.4148 38.492 49.1468 37.7987C50.5894 37.1973 52.4561 36.864 54.8348 37.1413C59.9374 37.7373 60.9374 40.9227 60.7468 42.256C60.5548 43.5893 59.4854 44.3227 59.1268 44.544C58.7694 44.7653 58.6601 44.8427 58.6894 45.0067C58.7334 45.2453 58.8988 45.2373 59.2041 45.1853C59.6241 45.1147 61.8828 44.1013 61.9801 41.64C62.1014 38.512 59.1081 35.08 53.8054 35.108ZM14.4761 48.3667C12.7854 50.2107 10.4254 50.9067 9.41209 50.32C8.31876 49.6867 8.75209 46.972 10.8254 45.0147C12.0894 43.8227 13.7214 42.724 14.8041 42.048C15.0508 41.9 15.4121 41.6827 15.8521 41.4187C15.9254 41.3773 15.9668 41.3547 15.9668 41.3547L15.9654 41.352C16.0508 41.3013 16.1374 41.2493 16.2268 41.1947C16.9828 43.98 16.2508 46.432 14.4761 48.3667ZM26.7894 39.9973C26.2014 41.432 24.9694 45.104 24.2188 44.9067C23.5748 44.7373 23.1828 41.9467 24.0908 39.2C24.5468 37.8173 25.5228 36.1653 26.0961 35.524C27.0188 34.492 28.0348 34.1547 28.2814 34.5733C28.5948 35.1067 27.1588 39.0973 26.7894 39.9973ZM36.9614 44.8507C36.7121 44.9813 36.4828 45.0627 36.3774 45C36.2988 44.9533 36.4801 44.7813 36.4801 44.7813C36.4801 44.7813 37.7521 43.412 38.2534 42.7893C38.5454 42.4267 38.8828 41.996 39.2508 41.516C39.2534 41.564 39.2548 41.612 39.2548 41.6587C39.2521 43.2987 37.6681 44.4053 36.9614 44.8507ZM44.7974 43.064C44.6108 42.932 44.6428 42.504 45.2548 41.1693C45.4948 40.6453 46.0441 39.764 46.9961 38.9213C47.1068 39.268 47.1734 39.6 47.1721 39.9093C47.1601 41.9733 45.6881 42.744 44.7974 43.064Z" fill="#F06292"/>
</g>
</svg>
